# xmcd CD database file
#
# Track frame offsets:
#	150
#	15600
#	33600
#	48648
#	62988
#	77829
#	97493
#	116634
#	129533
#	143670
#	153416
#	175859
#	196155
#
# Disc length: 2861 seconds
#
# Revision: 0
# Processed by: cddbd v1.5.2PL0 Copyright (c) Steve Scherf et al.
# Submitted via: CDex 1.51
#
DISCID=b90b2b0d
DTITLE=Scrapomatic - Alligator Love Cry
DYEAR=2006
DGENRE=Blues
TTITLE0=Louisiana Anna
TTITLE1=Horsemeat
TTITLE2=Graveside Blues
TTITLE3=Long Way Home
TTITLE4=So Much Love
TTITLE5=Lotus
TTITLE6=Monkey Card
TTITLE7=Ain't Got the Smile
TTITLE8=The Other Side
TTITLE9=God Damn Job
TTITLE10=Tired Weak Legs
TTITLE11=Raw Head and Bloody Bones
TTITLE12=I Belong to the Band
EXTD=YEAR: 2006
EXTT0=
EXTT1=
EXTT2=
EXTT3=
EXTT4=
EXTT5=
EXTT6=
EXTT7=
EXTT8=
EXTT9=
EXTT10=
EXTT11=
EXTT12=
PLAYORDER=
